<?xml version="1.0" encoding="utf-8"?>
<!-- Generator: Adobe Illustrator 16.0.0, SVG Export Plug-In . SVG Version: 6.00 Build 0)  -->
<!DOCTYPE svg PUBLIC "-//W3C//DTD SVG 1.1//EN" "http://www.w3.org/Graphics/SVG/1.1/DTD/svg11.dtd">
<svg id="svg" version="1.1" xmlns="http://www.w3.org/2000/svg" xmlns:xlink="http://www.w3.org/1999/xlink" x="0px" y="0px" width="1280px"
	 height="800px" viewBox="0 0 1280 800" enable-background="new 0 0 1280 800" xml:space="preserve">
<defs>
	<g id="Port">
		<polygon style="fill:rgb(0, 128, 0);stroke:#ada23d;stroke-miterlimit:5" points="108,58 72.111,58 54.5,83.556 36.925,58 0,58 0,0 108,0 "/>
	</g>
</defs>
<g id="Layer_2">
	<g id="kairys_sonas">
		<polygon fill="#660000" points="3.984,539.219 284.266,701.047 284.291,693.168 3.984,531.485 		"/>
		<polygon fill="#660000" points="304.922,689.156 388.188,737.438 388.188,729.522 304.922,681.391 		"/>
		<polygon fill="#660000" points="370.646,748.147 382.765,755.168 382.765,747.344 370.646,740.412 		"/>
		<polygon fill="#660000" points="405.531,769.219 449.688,794.75 449.688,786.985 405.531,761.485 		"/>
		<polygon fill="#660000" points="591.031,662.188 635.156,687.625 635.179,679.828 591.031,654.406 		"/>
		<polygon fill="#660000" points="617.844,610.375 617.844,618.156 629.938,625.125 629.938,617.328 		"/>
		<polygon fill="#660000" points="650.313,599.395 662.5,606.406 662.5,598.547 650.313,591.625 		"/>
		<polygon fill="#660000" points="789.813,518.797 801.938,525.86 801.938,518.078 789.813,511.078 		"/>
		<polygon fill="#660000" points="645.469,389.735 817.766,489.235 817.766,481.453 645.469,381.985 		"/>
		<polygon fill="#660000" points="761.203,322.906 936.234,424 936.234,416.172 761.203,315.172 		"/>
		<polygon fill="#660000" points="796.031,295.033 788.734,290.813 788.734,298.531 789.344,298.891 		"/>
		<polygon fill="#660000" points="831.75,274.438 831.75,282.125 857.563,297.125 857.563,289.297 		"/>
		<polygon fill="#660000" points="872,297.688 872,305.406 897.875,320.454 897.888,312.485 		"/>
		<polygon fill="#660000" points="801.713,236.063 801.713,243.844 1052.007,388.37 1058.688,384.393 		"/>
		<polygon fill="#660000" points="567.854,112.959 567.854,120.709 641.688,163.292 648.474,159.334 		"/>
		<polygon fill="#660000" points="912.292,328.729 938.125,343.646 938.125,335.875 912.292,320.938 		"/>
		<polygon fill="#660000" points="971.133,396.094 971.133,403.891 979.344,408.625 979.344,400.844 		"/>
		<polygon fill="#660000" points="859.719,507.031 903.875,532.547 903.875,524.703 859.719,499.281 		"/>
		<polygon fill="#660000" points="962.792,447.521 1006.896,473.063 1006.896,465.229 962.792,439.791 		"/>
	</g>
	<polygon fill="#CC0000" points="857.563,289.297 864.188,285.563 864.188,293.344 857.563,297.125 	"/>
	<polygon fill="#CC0000" points="897.888,312.547 904.453,308.828 904.453,316.578 897.875,320.454 	"/>
	<polygon fill="#CC0000" points="938.125,335.875 944.719,332.078 944.719,339.828 938.125,343.646 	"/>
	<polygon fill="#CC0000" points="979.344,400.844 1004.172,386.531 1004.172,394.266 979.344,408.625 	"/>
	<polygon fill="#CC0000" points="971.133,396.094 971.133,403.891 936.234,424 936.234,416.172 	"/>
	<polygon fill="#CC0000" points="907.578,429.625 907.578,437.36 817.766,489.235 817.766,481.453 	"/>
	<polygon fill="#CC0000" points="589.969,368.869 696.089,307.625 696.089,315.344 596.672,372.735 	"/>
	<polygon fill="#CC0000" points="696.281,296.922 696.625,304.453 801.713,243.844 801.713,236.063 	"/>
	<polygon fill="#CC0000" points="1278.234,308.641 1278.234,316.391 1006.896,473.063 1006.896,465.229 	"/>
	<polygon fill="#CC0000" points="986.521,477.021 986.521,484.771 903.875,532.547 903.875,524.703 	"/>
	<polygon fill="#CC0000" points="884.293,536.063 884.293,543.791 635.156,687.625 635.179,679.828 	"/>
	<polygon fill="#CC0000" points="822.781,506.047 822.781,513.797 801.938,525.86 801.938,518.078 	"/>
	<polygon fill="#CC0000" points="801.354,490.917 801.354,498.708 388.188,737.438 388.188,729.438 	"/>
	<polygon fill="#CC0000" points="683.281,586.578 683.281,594.375 662.5,606.406 662.5,598.547 	"/>
	<polygon fill="#CC0000" points="650.797,605.344 650.797,613.11 629.938,625.125 629.938,617.328 	"/>
	<polygon fill="#CC0000" points="614.781,691.656 614.781,699.438 449.688,794.75 449.688,786.985 	"/>
	<polygon fill="#CC0000" points="394.906,740.412 394.906,748.188 382.765,755.168 382.765,747.344 	"/>
	<polygon fill="#CC0000" points="284.291,693.168 304.898,681.27 304.922,689.156 284.266,701.047 	"/>
	<polygon fill="#660000" points="696.281,296.922 696.089,307.625 696.089,315.344 696.438,315.166 696.625,304.453 	"/>
</g>
<g id="Piesiu">
	<g>
		<polygon id="senukai" fill="#FFFFFF" stroke="#000000" stroke-width="0.25" stroke-miterlimit="10" points="284.291,693.168 
			4.225,531.472 437.792,281.152 801.145,490.934 388.186,729.356 304.898,681.27 		"/>
		<polygon id="thomas-philipps" fill="#FFFFFF" stroke="#000000" stroke-width="0.25" stroke-miterlimit="10" points="
			437.792,281.152 607.413,183.221 750.191,265.655 696.151,296.854 695.959,307.533 589.723,368.869 		"/>
		<polygon id="elektromarkt" fill="#FFFFFF" stroke="#000000" stroke-width="0.25" stroke-miterlimit="10" points="
			607.413,183.221 750.191,265.655 801.713,235.909 775.17,220.584 795.779,208.686 599.001,95.076 568.089,112.924 
			648.631,159.425 		"/>
		<polygon id="norfa" fill="#FFFFFF" stroke="#000000" stroke-width="0.25" stroke-miterlimit="10" points="
			598.208,95.534 753.563,5.84 1234.068,283.258 1170.657,319.868 1113.912,287.107 1074.281,309.988 1020.281,278.811 
			948.152,320.454 775.17,220.584 794.986,209.144 		"/>
		<polygon id="grafitas" fill="#FFFFFF" stroke="#000000" stroke-width="0.25" stroke-miterlimit="10" points="948.152,320.454 
			973.779,335.25 1045.908,293.607 1020.281,278.811 		"/>
		<polygon id="eurokos" fill="#FFFFFF" stroke="#000000" stroke-width="0.25" stroke-miterlimit="10" points="973.779,335.25 
			1002.151,351.632 1074.281,309.988 1045.908,293.607 		"/>
		<polygon id="gardenijos-ziedai" fill="#FFFFFF" stroke="#000000" stroke-width="0.25" stroke-miterlimit="10" points="
			1002.151,351.632 1025.948,365.37 1037.837,358.506 1014.041,344.767 		"/>
		<polygon id="bruklino-turgus-1" fill="#FFFFFF" stroke="#000000" stroke-width="0.25" stroke-miterlimit="10" points="
			912.531,320.941 938.158,335.737 944.5,332.075 918.873,317.28 		"/>
		<polygon id="bruklino-turgus-2" fill="#FFFFFF" stroke="#000000" stroke-width="0.25" stroke-miterlimit="10" points="
			872.262,297.69 897.888,312.485 904.229,308.824 878.603,294.029 		"/>
		<polygon id="fis-sviezios-zuvies-namai" fill="#FFFFFF" stroke="#000000" stroke-width="0.25" stroke-miterlimit="10" points="
			831.99,274.44 857.617,289.236 863.958,285.575 838.331,270.779 		"/>
		<polygon id="gjensidige" fill="#FFFFFF" stroke="#000000" stroke-width="0.25" stroke-miterlimit="10" points="
			980.032,385.538 992.846,392.937 1003.942,386.53 991.129,379.132 		"/>
		<polygon id="midi-dilema" fill="#FFFFFF" stroke="#000000" stroke-width="0.25" stroke-miterlimit="10" points="
			818.104,401.88 843.73,416.675 864.339,404.777 838.712,389.982 		"/>
		<polygon id="active-friend" fill="#FFFFFF" stroke="#000000" stroke-width="0.25" stroke-miterlimit="10" points="
			796.703,414.236 865.348,453.866 886.748,441.511 818.104,401.88 		"/>
		<polygon id="mls-outlet" fill="#FFFFFF" stroke="#000000" stroke-width="0.25" stroke-miterlimit="10" points="
			747.328,365.593 785.769,387.786 810.34,373.6 771.899,351.406 		"/>
		<polygon id="miego-imperija" fill="#FFFFFF" stroke="#000000" stroke-width="0.25" stroke-miterlimit="10" points="
			645.722,381.982 720.772,425.312 747.722,409.752 672.672,366.422 		"/>
		<polygon id="neaisku-kas-4" fill="#FFFFFF" stroke="#000000" stroke-width="0.25" stroke-miterlimit="10" points="
			717.06,340.795 753.669,361.932 771.899,351.406 735.289,330.27 		"/>
		<polygon id="bags-city" fill="#FFFFFF" stroke="#000000" stroke-width="0.25" stroke-miterlimit="10" points="768.331,397.854 
			796.703,414.236 838.712,389.982 810.34,373.6 		"/>
		<polygon id="laisva-0" fill="#FFFFFF" stroke="#000000" stroke-width="0.25" stroke-miterlimit="10" points="1025.948,365.37 
			1037.837,358.506 1014.041,344.767 1113.912,287.107 1170.657,319.868 1058.896,384.393 		"/>
		<polygon id="neaisku-kas-3" fill="#FFFFFF" stroke="#000000" stroke-width="0.25" stroke-miterlimit="10" points="
			788.999,290.806 816.457,306.657 841.029,292.471 813.571,276.62 		"/>
		<polygon id="neaisku-kas-2" fill="#FFFFFF" stroke="#000000" stroke-width="0.25" stroke-miterlimit="10" points="
			816.457,306.657 830.187,314.585 854.758,300.398 841.029,292.471 		"/>
		<polygon id="neaisku-kas-1" fill="#FFFFFF" stroke="#000000" stroke-width="0.25" stroke-miterlimit="10" points="
			830.187,314.585 843.915,322.51 868.486,308.323 854.758,300.398 		"/>
		<polygon id="gyduolis" fill="#FFFFFF" stroke="#000000" stroke-width="0.25" stroke-miterlimit="10" points="843.915,322.51 
			855.813,329.38 880.385,315.194 868.486,308.323 		"/>
		<polygon id="neaisku-kas" fill="#FFFFFF" stroke="#000000" stroke-width="0.25" stroke-miterlimit="10" points="
			855.813,329.38 869.542,337.306 894.113,323.119 880.385,315.194 		"/>
		<polygon id="vovieriskiai" fill="#FFFFFF" stroke="#000000" stroke-width="0.25" stroke-miterlimit="10" points="
			869.542,337.306 883.271,345.232 907.842,331.046 894.113,323.119 		"/>
		<polygon id="odvilna" fill="#FFFFFF" stroke="#000000" stroke-width="0.25" stroke-miterlimit="10" points="883.271,345.232 
			921.711,367.426 946.282,353.24 907.842,331.046 		"/>
		<polygon id="stivaliss" fill="#FFFFFF" stroke="#000000" stroke-width="0.25" stroke-miterlimit="10" points="864.868,374.88 
			892.327,390.732 927.202,370.596 899.744,354.745 		"/>
		<polygon id="galdini" fill="#FFFFFF" stroke="#000000" stroke-width="0.25" stroke-miterlimit="10" points="892.327,390.732 
			936.258,416.096 971.133,395.96 927.202,370.596 		"/>
		<polygon id="domus-lumina" fill="#FFFFFF" stroke="#000000" stroke-width="0.25" stroke-miterlimit="10" points="
			715.69,582.543 759.622,607.907 780.23,596.01 736.299,570.646 		"/>
		<polygon id="zana" fill="#FFFFFF" stroke="#000000" stroke-width="0.25" stroke-miterlimit="10" points="675.266,605.882 
			719.197,631.246 759.622,607.907 715.69,582.543 		"/>
		<polygon id="kika" fill="#FFFFFF" stroke="#000000" stroke-width="0.25" stroke-miterlimit="10" points="531.007,689.17 
			574.938,714.534 614.571,691.653 570.64,666.288 		"/>
		<polygon id="hesburger" fill="#FFFFFF" stroke="#000000" stroke-width="0.25" stroke-miterlimit="10" points="488.999,713.424 
			532.931,738.788 574.938,714.534 531.007,689.17 		"/>
		<polygon id="brodvejaus-pica" fill="#FFFFFF" stroke="#000000" stroke-width="0.25" stroke-miterlimit="10" points="
			405.772,761.474 449.704,786.838 532.931,738.788 488.999,713.424 		"/>
			<polygon id="arvinas" fill="#FFFFFF" stroke="#000000" stroke-width="0.25" stroke-miterlimit="10" points="
			370.871,740.409 382.769,747.279 394.659,740.414 382.759,733.545 		"/>
		<polygon id="poilsiui-miegui" fill="#FFFFFF" stroke="#000000" stroke-width="0.25" stroke-miterlimit="10" points="
			839.243,360.083 864.868,374.88 899.744,354.745 874.118,339.948 		"/>
		<polygon id="la-bel" fill="#FFFFFF" stroke="#000000" stroke-width="0.25" stroke-miterlimit="10" points="
			813.615,345.288 839.243,360.083 874.118,339.948 848.491,325.153 		"/>
		<polygon id="skruzdelynas" fill="#FFFFFF" stroke="#000000" stroke-width="0.25" stroke-miterlimit="10" points="
			761.446,315.168 813.615,345.288 848.491,325.153 796.321,295.033 		"/>
		<polygon id="prezo-kepyklele" fill="#FFFFFF" stroke="#000000" stroke-width="0.25" stroke-miterlimit="10" points="
			921.711,367.426 979.371,400.716 992.846,392.937 980.032,385.538 991.129,379.132 946.282,353.24 		"/>
		<polygon id="galerija-novus-art" fill="#FFFFFF" stroke="#000000" stroke-width="0.25" stroke-miterlimit="10" points="
			864.896,416.08 854.827,410.268 864.339,404.777 874.406,410.589 		"/>
		<polygon id="optikos-pasaulis" fill="#FFFFFF" stroke="#000000" stroke-width="0.25" stroke-miterlimit="10" points="
			886.748,441.511 843.73,416.675 854.827,410.268 864.896,416.08 874.406,410.589 907.355,429.613 		"/>
		<polygon id="toys-plius" fill="#FFFFFF" stroke="#000000" stroke-width="0.25" stroke-miterlimit="10" points="717.06,340.795 
			753.669,361.932 747.328,365.593 785.769,387.786 747.722,409.752 672.672,366.422 		"/>
		<polygon id="sport-outlet" fill="#FFFFFF" stroke="#000000" stroke-width="0.25" stroke-miterlimit="10" points="
			768.331,397.854 865.348,453.866 843.946,466.223 800.015,440.859 789.71,446.808 736.625,416.159 		"/>
		<polygon id="puma" fill="#FFFFFF" stroke="#000000" stroke-width="0.25" stroke-miterlimit="10" points="720.772,425.312 
			736.625,416.159 789.71,446.808 800.015,440.859 843.946,466.223 817.789,481.324 		"/>
		<polygon id="laisva-1" fill="#FFFFFF" stroke="#000000" stroke-width="0.25" stroke-miterlimit="10" points="1029.569,401.324 
			1073.502,426.689 1278,308.622 1234.068,283.258 		"/>
		<polygon id="rasvilte" fill="#FFFFFF" stroke="#000000" stroke-width="0.25" stroke-miterlimit="10" points="1004.205,415.969 
			1048.137,441.333 1073.502,426.689 1029.569,401.324 		"/>
		<polygon id="vynoteka" fill="#FFFFFF" stroke="#000000" stroke-width="0.25" stroke-miterlimit="10" points="962.989,439.765 
			1006.921,465.129 1048.137,441.333 1004.205,415.969 		"/>
		<polygon id="losimu-automatu-salonas" fill="#FFFFFF" stroke="#000000" stroke-width="0.25" stroke-miterlimit="10" points="
			880.556,487.358 924.488,512.722 986.313,477.028 942.382,451.663 		"/>
		<polygon id="siauliu-bankas" fill="#FFFFFF" stroke="#000000" stroke-width="0.25" stroke-miterlimit="10" points="
			885.574,514.052 903.88,524.62 924.488,512.722 906.183,502.154 		"/>
		<polygon id="get-smart" fill="#FFFFFF" stroke="#000000" stroke-width="0.25" stroke-miterlimit="10" points="859.948,499.256 
			885.574,514.052 906.183,502.154 880.556,487.358 		"/>
		<polygon id="norfos-vaistine" fill="#FFFFFF" stroke="#000000" stroke-width="0.25" stroke-miterlimit="10" points="
			810.806,527.629 854.738,552.993 884.063,536.061 840.132,510.697 		"/>
		<polygon id="wallets" fill="#FFFFFF" stroke="#000000" stroke-width="0.25" stroke-miterlimit="10" points="790.056,511.074 
			801.954,517.943 822.563,506.044 810.665,499.176 		"/>
		<polygon id="mobi-style" fill="#FFFFFF" stroke="#000000" stroke-width="0.25" stroke-miterlimit="10" points="
			650.554,591.615 662.452,598.485 683.06,586.586 671.162,579.717 		"/>
		<polygon id="jiesa-keramikos-dirbiniai" fill="#FFFFFF" stroke="#000000" stroke-width="0.25" stroke-miterlimit="10" points="
			618.057,610.378 629.954,617.247 650.563,605.349 638.665,598.48 		"/>
		<polygon id="cafetta" fill="#FFFFFF" stroke="#000000" stroke-width="0.25" stroke-miterlimit="10" points="778.308,546.392 
			822.239,571.755 854.738,552.993 810.806,527.629 		"/>
		<polygon id="pigu-lt" fill="#FFFFFF" stroke="#000000" stroke-width="0.25" stroke-miterlimit="10" points="736.299,570.646 
			780.23,596.01 822.239,571.755 778.308,546.392 		"/>
		<polygon id="oksalis" fill="#FFFFFF" stroke="#000000" stroke-width="0.25" stroke-miterlimit="10" points="634.049,629.679 
			677.98,655.043 719.197,631.246 675.266,605.882 		"/>
		<polygon id="automobiliu-aksesuarai" fill="#FFFFFF" stroke="#000000" stroke-width="0.25" stroke-miterlimit="10" points="
			591.247,654.391 635.179,679.754 677.98,655.043 634.049,629.679 		"/>
	</g>
</g>
</svg>
